#N canvas 905 120 735 503 10;
#X obj 70 226 pix_texture;
#X obj 140 101 gemhead;
#X obj 55 308 pix_info;
#X obj 529 16 gemwin;
#X msg 589 -15 destroy;
#X obj 624 -85 loadbang;
#X obj 291 236 pix_texture;
#X obj 295 300 pix_info;
#X msg 307 38 rgb \$1;
#X obj 309 -8 vradio 15 1 0 2 empty empty empty 0 -8 0 10 -262144 -1
-1 1;
#X obj 366 -8 vradio 15 1 0 2 empty empty empty 0 -8 0 10 -262144 -1
-1 1;
#X msg 366 26 depth \$1;
#X obj 61 267 rectangle 4 3;
#X obj 293 267 rectangle 4 3;
#X msg 466 -22 create \, 1;
#X obj 263 106 gemhead;
#X msg 529 -56 dimen 1280 480 \, create \, 1;
#X obj 47 188 translateXYZ -4 0 0;
#X obj 248 192 translateXYZ 4 0 0;
#X msg 300 -50 depth_output \$1;
#X obj 300 -90 vradio 15 1 0 2 empty empty empty 0 -8 0 10 -262144
-1 -1 0;
#X text 317 -89 rgba -> mm in r&g \, userid b ch.;
#X text 317 -73 yuv (2 byte)->16 bit mm;
#X obj 167 49 bng 15 250 50 0 empty empty empty 17 7 0 10 -262144 -1
-1;
#X msg 26 -28 min \$1;
#X floatatom 28 -54 5 0 0 0 - - -, f 5;
#X floatatom 90 -62 5 0 0 0 - - -, f 5;
#X msg 88 -28 max \$1;
#X obj 183 146 pix_openni 1 1 9 1 4 1;
#X msg 147 -9 min 42 \, max 81;
#X obj 141 -75 loadbang;
#X connect 0 0 12 0;
#X connect 1 0 28 0;
#X connect 4 0 3 0;
#X connect 5 0 16 0;
#X connect 6 0 13 0;
#X connect 8 0 28 0;
#X connect 9 0 8 0;
#X connect 10 0 11 0;
#X connect 11 0 28 0;
#X connect 12 0 2 0;
#X connect 13 0 7 0;
#X connect 14 0 3 0;
#X connect 15 0 28 1;
#X connect 16 0 3 0;
#X connect 17 0 0 0;
#X connect 18 0 6 0;
#X connect 19 0 28 0;
#X connect 20 0 19 0;
#X connect 23 0 28 0;
#X connect 24 0 28 0;
#X connect 25 0 24 0;
#X connect 26 0 27 0;
#X connect 27 0 28 0;
#X connect 28 0 17 0;
#X connect 28 1 18 0;
#X connect 29 0 28 0;
#X connect 30 0 29 0;
